<?xml version="1.0" encoding="UTF-8" standalone="no"?> <svg width="512" height="512" viewBox="0 0 512 512" fill="none" xmlns="http://www.w3.org/2000/svg">
<path d="M432 232H80V456H432V232Z" fill="#EAE9E4"/>
<path d="M400 288H224V424H400V288Z" fill="#5EBEF7"/>
<path d="M392 288H224V416H392V288Z" fill="#92D1F7"/>
<path d="M456 456H56V488H456V456Z" fill="#A86E09"/>
<path d="M456 456H56V467.511H456V456Z" fill="#EE9D0D"/>
<path d="M152 280C141.391 280 131.217 284.214 123.716 291.716C116.214 299.217 112 309.391 112 320V424H192V320C192 314.747 190.965 309.546 188.955 304.693C186.945 299.84 183.999 295.43 180.284 291.716C176.57 288.001 172.16 285.055 167.307 283.045C162.454 281.035 157.253 280 152 280Z" fill="#92D1F7"/>
<path d="M152 288C143.513 288 135.374 291.371 129.373 297.373C123.371 303.374 120 311.513 120 320V352H184V320C184 311.513 180.629 303.374 174.627 297.373C168.626 291.371 160.487 288 152 288Z" fill="#EAE9E4"/>
<path d="M472 256H40L45.374 247.938C62.7358 221.897 72.0003 191.298 72 160H440C440 191.298 449.264 221.897 466.626 247.938L472 256Z" fill="#2C91FF"/>
<path d="M192 256H112L117.374 247.938C134.736 221.897 144 191.298 144 160H224C224 191.298 214.736 221.897 197.374 247.938L192 256Z" fill="#DCDBD6"/>
<path d="M400 256H320L314.626 247.938C297.264 221.897 288 191.298 288 160H368C368 191.298 377.264 221.897 394.626 247.938L400 256Z" fill="#DCDBD6"/>
<path d="M440 96H72V160H440V96Z" fill="#EE9D0D"/>
<path d="M256 24C279.339 24 301.722 33.2714 318.225 49.7746C334.729 66.2778 344 88.6609 344 112V128H168V112C168 88.6609 177.271 66.2778 193.775 49.7746C210.278 33.2714 232.661 24 256 24V24Z" fill="#EE9D0D"/>
<path d="M264 328H347.2V349.867C347.2 360.9 342.817 371.481 335.016 379.283C327.214 387.084 316.633 391.467 305.6 391.467V391.467C294.567 391.467 283.986 387.084 276.184 379.283C268.383 371.481 264 360.9 264 349.867V328V328Z" fill="#EAE9E4"/>
<path d="M337.97 376C335.502 379.062 332.61 381.756 329.38 384H281.82C278.59 381.756 275.698 379.062 273.23 376H337.97Z" fill="#EAE9E4"/>
<path d="M344 400H272C269.878 400 267.843 399.157 266.343 397.657C264.843 396.157 264 394.122 264 392C264 389.878 264.843 387.843 266.343 386.343C267.843 384.843 269.878 384 272 384H344C346.122 384 348.157 384.843 349.657 386.343C351.157 387.843 352 389.878 352 392C352 394.122 351.157 396.157 349.657 397.657C348.157 399.157 346.122 400 344 400Z" fill="#DCDBD6"/>
<path d="M432 256H80V264H432V256Z" fill="#CDCCC8"/>
<path d="M432 448H80V456H432V448Z" fill="#CDCCC8"/>
<path d="M200 424H104V456H200V424Z" fill="#DCDBD6"/>
<path d="M200 424H104V432H200V424Z" fill="#E6E5E0"/>
<path d="M400 280H224C221.878 280 219.843 280.843 218.343 282.343C216.843 283.843 216 285.878 216 288V424C216 426.122 216.843 428.157 218.343 429.657C219.843 431.157 221.878 432 224 432H400C402.122 432 404.157 431.157 405.657 429.657C407.157 428.157 408 426.122 408 424V288C408 285.878 407.157 283.843 405.657 282.343C404.157 280.843 402.122 280 400 280ZM392 416H232V296H392V416Z" fill="black"/>
<path d="M478.656 251.562L473.282 243.501C456.771 218.785 447.971 189.723 448 160V95.9999C448 93.8782 447.157 91.8433 445.657 90.343C444.157 88.8427 442.122 87.9999 440 87.9999H348.963C343.639 67.3925 331.619 49.138 314.792 36.1054C297.965 23.0728 277.284 16.0007 256 16.0007C234.716 16.0007 214.035 23.0728 197.208 36.1054C180.381 49.138 168.361 67.3925 163.037 87.9999H72C69.8782 87.9999 67.8434 88.8427 66.3431 90.343C64.8428 91.8433 64 93.8782 64 95.9999V160C64.0283 189.723 55.229 218.785 38.718 243.5L33.344 251.561C32.5402 252.765 32.0785 254.166 32.008 255.612C31.9376 257.058 32.261 258.497 32.944 259.774C33.1382 260.132 33.3599 260.475 33.607 260.799C33.677 260.899 33.758 261.008 33.851 261.121L72 306.9V448H56C53.8782 448 51.8434 448.843 50.3431 450.343C48.8428 451.843 48 453.878 48 456V488C48 490.122 48.8428 492.156 50.3431 493.657C51.8434 495.157 53.8782 496 56 496H456C458.122 496 460.157 495.157 461.657 493.657C463.157 492.156 464 490.122 464 488V456C464 453.878 463.157 451.843 461.657 450.343C460.157 448.843 458.122 448 456 448H440V306.9L478.146 261.125C478.246 261.01 478.324 260.901 478.397 260.795C479.398 259.476 479.961 257.877 480.008 256.221C480.054 254.566 479.582 252.938 478.656 251.565V251.562ZM457.148 248H404.281L401.281 243.5C386.289 221.046 377.636 194.962 376.236 168H432.19C433.524 196.363 442.118 223.909 457.148 248V248ZM187.719 248H126.852C141.882 223.909 150.476 196.363 151.81 168H215.79C214.38 194.964 205.718 221.049 190.718 243.5L187.719 248ZM231.786 168H280.214C281.546 196.363 290.138 223.909 305.166 248H206.834C221.862 223.909 230.454 196.363 231.786 168V168ZM321.286 243.5C306.284 221.049 297.621 194.965 296.21 168H360.19C361.524 196.363 370.118 223.909 385.148 248H324.281L321.286 243.5ZM256 31.9999C277.21 32.024 297.544 40.4603 312.542 55.4579C327.54 70.4556 335.976 90.79 336 112V120H176V112C176.024 90.79 184.46 70.4556 199.458 55.4579C214.456 40.4603 234.79 32.024 256 31.9999V31.9999ZM80 104H160.336C160.117 106.639 160 120 160 120H104C101.878 120 99.8434 120.843 98.3431 122.343C96.8428 123.843 96 125.878 96 128C96 130.122 96.8428 132.156 98.3431 133.657C99.8434 135.157 101.878 136 104 136H408C410.122 136 412.157 135.157 413.657 133.657C415.157 132.156 416 130.122 416 128C416 125.878 415.157 123.843 413.657 122.343C412.157 120.843 410.122 120 408 120H352C352 120 351.883 106.639 351.664 104H432V152H80V104ZM79.81 168H135.764C134.363 194.962 125.71 221.046 110.718 243.5L107.718 248H54.852C69.8821 223.909 78.4758 196.363 79.81 168ZM57.081 264H72V281.9L57.081 264ZM448 480H64V464H448V480ZM182.987 312H160V289.013C165.53 290.453 170.576 293.342 174.617 297.383C178.658 301.424 181.547 306.47 182.987 312V312ZM120 328H144V352H120V328ZM160 328H184V352H160V328ZM144 312H121.013C122.453 306.47 125.342 301.424 129.383 297.383C133.424 293.342 138.47 290.453 144 289.013V312ZM120 368H184V416H120V368ZM112 432H192V448H112V432ZM208 448V424C208 421.878 207.157 419.843 205.657 418.343C204.157 416.843 202.122 416 200 416V320C200 307.269 194.943 295.06 185.941 286.059C176.939 277.057 164.73 272 152 272C139.27 272 127.061 277.057 118.059 286.059C109.057 295.06 104 307.269 104 320V416C101.878 416 99.8434 416.843 98.3431 418.343C96.8428 419.843 96 421.878 96 424V448H88V264H424V448H208ZM440 264H454.919L440 281.9V264Z" fill="black"/>
<path d="M264 392C264 394.122 264.843 396.157 266.343 397.657C267.843 399.157 269.878 400 272 400H344C346.122 400 348.157 399.157 349.657 397.657C351.157 396.157 352 394.122 352 392C352 389.878 351.157 387.843 349.657 386.343C348.157 384.843 346.122 384 344 384H341.536C344.085 381.32 346.329 378.365 348.226 375.19L367.732 370.313C372.817 369.042 377.262 365.955 380.229 361.634C383.196 357.312 384.481 352.055 383.84 346.853C383.2 341.65 380.679 336.862 376.752 333.389C372.826 329.916 367.765 328 362.523 328H264C261.878 328 259.843 328.843 258.343 330.343C256.843 331.843 256 333.878 256 336V349.867C255.994 362.713 260.991 375.056 269.931 384.28C268.231 384.735 266.728 385.738 265.656 387.134C264.584 388.53 264.002 390.24 264 392ZM368 349.477C368.001 350.699 367.593 351.886 366.841 352.849C366.09 353.812 365.037 354.496 363.851 354.791L354.669 357.091C355.021 354.701 355.198 352.288 355.2 349.872V344H362.523C363.975 344.002 365.367 344.579 366.394 345.606C367.421 346.633 367.998 348.025 368 349.477V349.477ZM272 344H339.2V349.867C339.2 358.778 335.66 367.325 329.359 373.626C323.058 379.927 314.511 383.467 305.6 383.467C296.689 383.467 288.142 379.927 281.841 373.626C275.54 367.325 272 358.778 272 349.867V344Z" fill="black"/>
</svg>
